<?xml version="1.0" standalone="no"?>
<!DOCTYPE svg PUBLIC "-//W3C//DTD SVG 20010904//EN"
 "http://www.w3.org/TR/2001/REC-SVG-20010904/DTD/svg10.dtd">
<svg version="1.0" xmlns="http://www.w3.org/2000/svg"
 width="300.000000pt" height="300.000000pt" viewBox="0 0 300.000000 300.000000"
 preserveAspectRatio="xMidYMid meet">
<metadata>
Created by potrace 1.10, written by Peter Selinger 2001-2011
</metadata>
<g transform="translate(0.000000,300.000000) scale(0.050000,-0.050000)"
fill="#ffffff" stroke="none">
<path d="M2763 5437 c-197 -198 -257 -277 -208 -277 8 0 111 97 230 215 l215
214 225 -224 226 -225 234 0 c251 0 258 -3 191 -74 l-43 -46 63 -66 c82 -85
81 -94 -16 -94 -70 0 -80 6 -80 46 0 97 -107 164 -250 157 l-129 -7 -110 105
c-65 61 -111 92 -111 75 0 -16 18 -46 40 -66 61 -56 49 -70 -61 -70 -111 0
-146 35 -91 91 53 53 40 154 -28 219 l-60 57 -61 -58 c-68 -65 -69 -193 -1
-242 46 -34 18 -51 -98 -62 -103 -10 -126 8 -70 55 17 14 30 44 30 67 0 36
-11 31 -79 -37 -99 -96 -82 -130 65 -130 99 0 100 -1 64 -40 -20 -22 -50 -40
-67 -40 -27 0 -26 -5 4 -35 34 -33 39 -30 124 65 l88 100 95 -94 96 -93 134 5
c128 5 137 3 197 -59 56 -58 70 -63 153 -53 90 10 92 9 79 -40 -9 -38 1 -62
48 -107 l60 -57 95 94 95 94 145 -146 c163 -164 160 -158 99 -215 l-45 -42
-10 67 c-9 59 -18 67 -80 72 -41 4 -92 28 -123 57 -75 72 -88 26 -14 -50 41
-42 81 -63 119 -63 54 0 58 -6 58 -77 0 -54 14 -89 46 -120 55 -51 90 -33 41
21 -32 34 -31 39 13 86 68 73 80 63 80 -66 0 -111 4 -119 90 -204 86 -85 142
-340 73 -340 -35 0 -111 104 -112 154 -1 29 -12 56 -26 61 -27 9 -37 -146 -10
-159 8 -4 51 -45 94 -91 l79 -85 -94 -96 c-81 -83 -94 -106 -94 -178 0 -58
-14 -100 -47 -139 -53 -63 -83 -230 -38 -212 14 5 25 36 25 68 0 36 19 78 50
109 38 37 50 71 50 135 0 71 12 96 70 153 l70 68 0 -135 c0 -132 -2 -137 -90
-231 -84 -90 -115 -162 -70 -162 11 0 20 12 20 26 0 27 101 134 126 134 8 0
14 -40 14 -90 0 -49 9 -90 20 -90 23 0 25 12 20 151 -2 96 2 106 88 185 67 61
81 84 55 84 -20 0 -53 -18 -73 -40 -58 -64 -70 -48 -70 91 0 124 2 129 40 109
22 -12 40 -34 40 -50 0 -54 172 -26 240 40 72 69 73 87 12 145 -66 62 -220 63
-286 2 l-46 -44 0 146 0 145 71 -62 c76 -67 132 -85 86 -28 -15 19 -56 60 -92
92 -62 55 -65 65 -65 203 l0 144 -92 87 -92 86 85 73 c47 40 81 85 76 99 -6
19 -26 12 -71 -26 -79 -66 -86 -65 -86 11 0 73 50 140 92 124 19 -8 28 3 28
31 0 23 16 52 35 64 27 16 34 41 28 100 -8 91 -87 111 -153 38 -20 -22 -51
-36 -69 -30 -24 7 -38 -8 -52 -55 -17 -59 -27 -66 -104 -71 -111 -8 -108 4 41
152 l125 124 145 0 144 0 0 -247 c0 -237 -2 -248 -50 -293 -27 -26 -50 -54
-50 -63 0 -27 35 -20 69 14 28 29 31 9 31 -214 l0 -246 215 -216 215 -215
-215 -214 c-214 -212 -215 -214 -215 -310 0 -72 7 -96 30 -96 22 0 30 23 30
85 0 81 9 94 224 309 l224 224 -102 108 c-56 59 -157 160 -224 224 l-122 116
0 547 0 547 -636 0 -635 0 -228 230 c-125 127 -234 230 -242 230 -7 0 -114
-101 -236 -223z m273 -61 c64 -64 1 -232 -66 -176 -52 43 -29 200 30 200 7 0
23 -11 36 -24z m1084 -306 l69 -71 -70 -70 -70 -70 -79 81 -78 80 58 60 c73
76 87 75 170 -10z m180 53 c0 -54 -80 -90 -120 -53 -59 53 -49 70 40 70 44 0
80 -8 80 -17z m-925 -89 c49 -37 24 -54 -81 -54 -151 0 -219 72 -79 84 82 7
122 0 160 -30z m350 -81 c54 -68 43 -93 -39 -93 -71 0 -206 95 -206 146 0 37
209 -8 245 -53z m828 15 c7 -17 -2 -46 -20 -64 -47 -46 -116 15 -74 65 33 40
79 40 94 -1z m-129 -101 c35 -33 35 -35 -6 -79 -34 -36 -43 -69 -41 -151 l2
-106 -51 52 c-43 43 -48 59 -30 93 12 23 22 65 22 93 0 103 48 148 104 98z
m-456 -64 c17 -28 -83 -109 -117 -96 -67 25 -37 113 38 113 38 0 73 -8 79 -17z
m308 -29 c15 -78 -37 -100 -98 -42 -67 64 -57 93 29 84 41 -4 65 -18 69 -42z
m228 -408 c55 -52 86 -246 40 -246 -54 0 -124 116 -124 206 0 109 8 113 84 40z
m386 -666 c49 -55 -5 -120 -100 -120 -95 0 -149 65 -100 120 22 24 62 40 100
40 38 0 78 -16 100 -40z"/>
<path d="M1980 5309 c0 -53 59 -149 92 -149 17 0 25 9 18 20 -24 38 35 19 187
-60 241 -126 373 -265 443 -465 25 -72 49 -107 76 -111 39 -6 46 27 20 96 -6
17 -27 72 -45 124 -59 164 -183 278 -451 415 -131 67 -243 130 -250 141 -20
32 -90 23 -90 -11z"/>
<path d="M1735 5195 c-62 -186 250 -676 532 -835 139 -79 284 -250 150 -179
-39 21 -75 2 -77 -41 0 -9 231 3 600 31 138 11 156 8 226 -40 70 -47 195 -71
194 -36 -6 151 -352 365 -592 365 l-70 0 36 -48 c20 -27 39 -40 43 -30 3 10
21 18 40 18 29 -1 29 -3 3 -22 -24 -17 -22 -20 14 -12 24 5 61 -3 83 -18 23
-16 42 -20 46 -8 4 12 28 8 61 -8 29 -16 60 -22 67 -15 8 7 4 -6 -8 -30 -22
-43 -103 -78 -103 -45 0 10 12 18 27 18 14 0 26 14 26 30 0 17 -7 30 -16 30
-9 0 -17 -9 -17 -20 0 -11 -13 -20 -28 -20 -15 0 -33 -14 -40 -31 -9 -23 -28
-28 -80 -18 -54 10 -72 5 -89 -24 -13 -22 -22 -26 -22 -11 -1 15 -9 21 -19 15
-11 -6 -23 4 -28 24 -7 27 -10 24 -12 -10 -1 -25 -10 -45 -21 -45 -10 0 -16
16 -12 36 6 30 -3 35 -50 28 -44 -6 -83 12 -173 80 -64 49 -157 112 -207 141
-182 104 -379 393 -413 606 l-13 78 57 -37 c31 -21 89 -55 128 -78 326 -184
434 -313 572 -679 38 -103 59 -118 76 -55 6 22 2 35 -8 29 -10 -6 -18 -2 -18
9 0 11 18 30 39 41 37 20 35 30 -53 205 -131 261 -215 337 -553 501 -311 152
-287 143 -298 110z"/>
<path d="M1260 4657 l0 -545 -228 -223 -228 -223 228 -228 228 -227 0 -546 0
-545 222 0 c288 0 306 47 21 56 l-183 6 0 263 c0 258 1 264 54 319 60 63 48
102 -14 46 -22 -20 -40 -33 -41 -28 0 4 -4 111 -8 236 l-8 228 -206 207 -205
206 214 218 214 217 0 169 0 169 86 84 86 85 45 -48 45 -47 -91 -94 c-90 -92
-91 -95 -91 -230 0 -133 -1 -137 -83 -213 -50 -46 -74 -80 -59 -85 14 -5 45
11 70 34 65 61 72 54 72 -78 0 -130 -7 -138 -65 -85 -75 68 -309 4 -314 -86
-2 -38 114 -133 165 -136 28 -2 46 -10 41 -18 -22 -35 39 -11 89 35 76 71 84
65 84 -70 0 -128 -13 -143 -70 -80 -20 22 -50 40 -67 40 -20 0 -1 -31 53 -86
83 -84 84 -88 84 -227 l0 -142 92 -85 92 -84 -56 -58 c-30 -32 -72 -58 -92
-58 -43 0 -47 -26 -7 -59 23 -19 37 -14 73 28 60 68 78 64 78 -16 0 -63 -48
-133 -92 -133 -33 0 -91 -132 -85 -192 9 -76 82 -89 148 -27 26 24 60 39 76
33 22 -8 29 6 29 58 0 53 -6 65 -24 49 -17 -14 -32 -13 -48 3 -32 32 -30 57 8
85 21 15 31 54 31 118 0 78 6 94 31 84 24 -9 28 -1 20 31 -7 24 2 64 20 91 17
27 22 47 9 47 -11 0 -26 -9 -33 -20 -31 -50 -50 -10 -50 106 0 123 -2 128 -90
214 -89 88 -90 90 -90 224 0 157 1 158 80 71 47 -52 59 -84 59 -155 1 -73 11
-98 51 -128 37 -28 50 -56 50 -111 0 -65 55 -182 61 -131 14 111 -9 205 -63
261 -45 48 -58 79 -58 146 0 73 -13 98 -94 185 -76 81 -88 104 -65 119 16 10
22 19 14 19 -8 0 21 33 65 72 78 71 120 228 60 228 -11 0 -20 -25 -20 -55 0
-47 -98 -185 -132 -185 -59 0 6 278 85 360 82 85 87 97 87 205 0 124 11 135
77 78 52 -45 53 -59 10 -107 -56 -61 -10 -67 53 -6 43 41 60 76 60 124 0 62
14 75 73 68 33 -4 53 32 27 48 -47 29 -140 -12 -140 -62 0 -59 -28 -61 -85 -8
l-43 40 74 76 c74 76 98 138 46 118 -20 -8 -31 13 -41 75 -7 48 -30 102 -52
122 -29 26 -33 42 -17 61 31 38 2 77 -34 46 -23 -19 -38 -15 -75 19 -80 75
-153 58 -153 -35 0 -44 13 -88 30 -102 17 -14 30 -43 30 -65 0 -25 10 -36 28
-28 42 16 92 -51 92 -124 0 -86 -14 -81 -146 53 l-114 115 0 155 0 154 162 0
c240 0 207 48 -39 56 l-183 6 0 -545z m281 312 c21 -26 20 -37 -7 -63 -39 -39
-94 -6 -94 56 0 47 64 51 101 7z m102 -102 c21 -18 37 -54 37 -79 0 -25 9 -70
21 -99 16 -44 13 -62 -14 -92 -52 -58 -67 -45 -67 56 0 58 -12 107 -32 129
-60 66 -10 144 55 85z m-245 -172 l61 -64 -53 -56 c-76 -78 -86 -70 -86 65 0
140 0 140 78 55z m182 -382 c0 -80 -74 -193 -126 -193 -38 0 -11 170 37 233
63 83 89 71 89 -40z m-270 -613 c49 -55 -5 -120 -100 -120 -95 0 -149 65 -100
120 22 24 62 40 100 40 38 0 78 -16 100 -40z m214 -555 c56 -60 83 -262 30
-233 -85 48 -114 97 -114 191 0 112 13 118 84 42z m29 -735 c15 -39 -27 -90
-75 -90 -43 0 -50 48 -13 90 33 38 73 37 88 0z"/>
<path d="M2140 4704 c0 -9 38 -38 85 -64 65 -37 78 -39 56 -12 -34 42 -141
100 -141 76z"/>
<path d="M3384 4117 c5 -13 47 -25 95 -25 103 -2 123 -60 62 -181 -20 -39 -29
-71 -19 -71 58 0 109 248 58 281 -45 28 -205 24 -196 -4z"/>
<path d="M2859 4091 c-94 -95 57 -313 193 -279 119 30 155 220 51 268 -65 30
-218 37 -244 11z m221 -71 c64 -64 52 -116 -30 -131 -73 -14 -130 13 -130 62
0 14 -11 30 -25 36 -37 15 41 73 99 73 25 0 64 -18 86 -40z"/>
<path d="M2292 3995 c-34 -168 -10 -285 45 -230 14 14 24 16 22 5 -18 -97 99
-231 254 -289 150 -57 265 -81 278 -59 6 10 1 18 -11 18 -12 0 -17 8 -11 18 6
9 -3 29 -19 42 -18 15 -30 17 -30 4 0 -31 -49 -18 -91 24 -27 27 -39 31 -46
12 -5 -16 -38 7 -85 60 -42 47 -72 93 -66 103 6 9 -4 17 -21 17 -24 0 -29 14
-21 55 6 30 5 44 -2 30 -6 -14 -20 -25 -31 -25 -11 0 -14 8 -8 19 12 19 -25
52 -41 36 -18 -18 85 -185 110 -180 15 4 19 -4 10 -18 -8 -13 2 -35 22 -50 54
-39 20 -58 -37 -21 -107 71 -179 273 -111 316 22 14 21 17 -8 18 -19 0 -40
-13 -47 -30 -12 -32 -47 -42 -47 -13 0 28 95 122 108 108 25 -25 69 -21 59 5
-7 18 10 24 55 22 36 -2 69 -15 74 -29 6 -18 15 -16 33 10 24 32 27 31 40 -9
7 -24 22 -44 31 -44 10 0 25 -34 32 -75 8 -41 18 -64 23 -50 5 14 16 20 26 14
9 -5 12 -24 6 -40 -8 -20 -2 -26 19 -18 16 7 37 1 45 -13 11 -17 7 -19 -13 -8
-15 9 -21 9 -13 0 8 -9 4 -31 -9 -48 -20 -27 -20 -28 4 -7 34 30 164 33 192 5
12 -12 56 -25 99 -31 73 -9 75 -8 38 20 -41 32 -6 84 38 56 12 -7 14 3 6 23
-9 24 -5 32 12 26 37 -13 94 45 80 81 -7 20 -4 27 10 18 12 -7 26 -2 32 12 6
15 10 12 11 -9 1 -19 18 -43 37 -54 29 -17 31 -26 10 -60 -22 -37 -18 -41 47
-54 109 -20 112 10 19 162 -112 183 -180 197 -225 44 -79 -273 -466 -211 -466
75 0 50 -2 51 -165 52 -91 1 -193 4 -228 8 -56 5 -64 -1 -75 -54z"/>
<path d="M1564 3695 c-37 -44 6 -93 46 -53 28 27 28 35 4 55 -22 18 -34 18
-50 -2z"/>
<path d="M3334 3660 c6 -22 1 -40 -11 -40 -12 0 -17 -13 -11 -28 6 -15 1 -34
-11 -41 -11 -7 -21 -3 -21 10 0 18 -7 18 -27 2 -15 -13 -32 -17 -39 -10 -7 6
-49 -3 -95 -21 -77 -31 -82 -31 -75 2 3 19 29 40 56 48 l50 14 -53 2 c-29 1
-58 -11 -64 -26 -6 -16 -36 -41 -66 -55 -46 -22 -67 -77 -24 -63 7 3 82 -17
167 -43 l154 -48 91 39 c50 21 86 44 80 50 -7 6 -30 2 -52 -10 -66 -36 -173
-26 -213 18 -49 54 -30 67 45 30 71 -36 144 -17 190 49 16 22 33 36 38 31 6
-6 10 3 10 19 0 16 -6 25 -15 20 -8 -5 -33 13 -54 41 -48 60 -64 64 -50 10z"/>
<path d="M4371 3682 c-18 -29 47 -72 72 -47 12 12 15 31 8 43 -16 26 -64 29
-80 4z"/>
<path d="M2167 3610 c-38 -99 69 -199 388 -364 101 -53 185 -103 185 -113 0
-42 -285 66 -455 174 -156 99 -87 15 80 -97 176 -117 180 -143 9 -58 -156 78
-231 142 -252 214 l-18 64 -2 -66 c-3 -87 47 -134 259 -249 395 -214 817 -231
913 -36 34 71 20 72 -48 4 -60 -60 -172 -103 -268 -103 -87 0 -238 25 -229 38
4 6 -15 13 -43 15 -27 2 -59 12 -69 22 -12 12 55 15 182 9 230 -11 341 19 425
113 54 60 34 153 -20 99 -26 -26 -250 -41 -234 -16 6 9 -7 12 -29 6 -81 -21
-434 124 -586 241 -52 40 -95 63 -95 51 0 -26 100 -128 140 -142 17 -6 23 -18
15 -26 -43 -47 -257 179 -222 235 5 8 4 15 -2 15 -7 0 -17 -14 -24 -30z m637
-380 c69 -16 177 -30 240 -30 65 0 120 -10 128 -23 10 -16 4 -20 -19 -11 -18
7 -33 3 -33 -8 0 -11 -9 -15 -20 -8 -11 7 -20 3 -20 -9 0 -11 -36 -21 -80 -21
-44 0 -80 8 -80 17 0 10 -20 14 -45 10 -51 -8 -298 112 -311 151 -6 18 9 16
53 -6 33 -18 118 -45 187 -62z"/>
<path d="M3480 3569 c-11 -29 -20 -62 -19 -75 1 -33 79 64 79 98 0 47 -40 31
-60 -23z"/>
<path d="M1978 3135 c-89 -68 -201 -255 -219 -365 -32 -208 -5 -623 49 -727
39 -75 63 -75 34 1 -82 217 -69 716 23 880 128 228 385 17 425 -349 7 -63 23
-115 34 -115 29 0 5 253 -32 342 -57 138 -172 238 -271 238 -58 0 -51 29 21
86 36 28 54 54 42 61 -11 7 -59 -16 -106 -52z"/>
<path d="M3336 3009 c-8 -8 8 -43 35 -79 28 -36 68 -138 91 -232 23 -93 54
-187 69 -211 24 -39 23 -46 -16 -72 -43 -28 -42 -29 21 -25 81 5 99 23 68 66
-42 59 -61 109 -105 277 -40 156 -131 309 -163 276z"/>
<path d="M4436 2970 c-3 -3 -122 -11 -264 -17 -305 -12 -283 5 -381 -283 -42
-121 -107 -305 -144 -410 -38 -104 -83 -229 -100 -276 l-31 -86 -203 2 c-338
4 -500 1 -490 -10 21 -20 709 -45 728 -26 8 9 211 570 313 866 51 150 68 171
134 169 28 -1 243 3 477 8 314 7 425 4 425 -13 0 -13 -36 -132 -79 -264 -44
-132 -114 -346 -157 -475 -42 -129 -71 -235 -63 -235 53 0 396 1038 344 1041
-113 6 -504 13 -509 9z"/>
<path d="M3223 2880 c23 -66 9 -130 -23 -110 -11 7 -20 34 -20 60 0 26 -9 53
-19 60 -20 12 -18 -43 9 -236 15 -109 -3 -218 -29 -176 -9 14 -13 70 -11 124
3 54 -2 103 -12 109 -10 6 -18 42 -18 79 0 56 -39 129 -40 76 -1 -9 -3 -110
-6 -226 -7 -300 -52 -365 -55 -80 -4 320 -29 350 -45 54 -7 -140 -23 -274 -36
-298 -19 -36 -18 -40 11 -29 19 7 42 13 51 13 37 0 80 66 80 123 0 40 9 57 25
52 14 -5 22 -26 18 -47 -4 -21 -8 -47 -10 -58 -2 -11 22 -23 52 -26 48 -6 55
0 55 50 0 31 9 70 20 86 14 22 19 8 20 -53 0 -55 10 -87 30 -94 25 -10 28 22
20 231 -11 290 -25 376 -61 376 -21 0 -22 -13 -6 -60z m16 -235 c-1 -71 -6
-85 -19 -55 -24 56 -24 150 0 150 11 0 19 -43 19 -95z"/>
<path d="M2157 2510 c10 -22 38 -57 61 -78 61 -55 52 -72 -35 -72 -91 0 -203
-35 -203 -64 0 -12 15 -14 35 -6 19 9 97 18 173 22 176 10 175 7 53 132 -57
58 -95 88 -84 66z"/>
<path d="M2261 2258 c-108 -23 -93 -38 36 -38 l124 0 -34 -65 c-34 -66 -49
-175 -23 -175 8 0 20 34 27 75 8 41 30 103 49 138 l36 63 -75 7 c-42 4 -105 2
-140 -5z"/>
<path d="M2565 2235 c-71 -76 -114 -235 -64 -235 12 0 17 7 12 16 -15 23 61
184 86 184 14 0 17 -28 9 -78 -7 -43 -4 -93 7 -112 15 -28 21 -17 31 51 6 47
29 110 52 140 64 87 -55 117 -133 34z"/>
<path d="M3093 2248 c-42 -15 -123 -33 -180 -40 -140 -18 -260 -149 -194 -215
28 -28 196 -17 264 19 72 37 137 35 194 -4 71 -50 80 -11 12 50 -34 30 -58 65
-54 77 11 32 -80 6 -110 -31 -22 -28 -25 -26 -25 12 0 24 7 43 15 41 8 -2 31
4 51 12 47 21 165 -41 220 -114 47 -62 74 -70 74 -22 0 18 -37 68 -83 110 -46
42 -72 77 -58 77 49 0 151 -77 190 -144 31 -51 41 -58 47 -31 27 137 -196 262
-363 203z m-113 -154 c0 -10 -11 -14 -25 -9 -14 5 -36 -6 -49 -23 -22 -28 -25
-26 -25 13 -1 35 9 44 49 40 28 -2 50 -12 50 -21z"/>
<path d="M2520 1545 l-150 -6 0 -250 0 -249 152 0 c152 0 152 0 143 50 -9 45
-19 50 -109 50 l-99 0 7 65 c6 61 10 65 79 61 57 -3 75 4 83 35 9 34 0 39 -78
39 -84 0 -88 2 -88 60 0 58 2 60 98 60 88 0 98 5 107 50 5 28 8 48 7 46 -1 -2
-69 -7 -152 -11z"/>
<path d="M4646 1546 c-69 -13 -81 -506 -12 -506 43 0 44 8 50 260 3 143 6 259
6 257 0 -1 -20 -6 -44 -11z"/>
<path d="M1032 1478 c-29 -33 -53 -72 -55 -85 -1 -12 -5 -45 -8 -73 -26 -214
193 -347 336 -204 l40 40 -40 22 c-31 16 -46 14 -65 -8 -75 -90 -180 -14 -180
130 0 134 115 229 170 140 16 -25 110 -26 110 -1 0 102 -230 132 -308 39z"/>
<path d="M1483 1493 c-151 -160 -62 -433 141 -433 139 0 220 136 186 315 -7
41 -12 78 -10 83 34 72 -252 104 -317 35z m228 -80 c75 -108 14 -273 -101
-273 -83 0 -110 41 -110 164 1 160 129 226 211 109z"/>
<path d="M1900 1290 l0 -250 75 2 c393 7 418 498 26 498 l-101 0 0 -250z m260
116 c64 -82 34 -237 -51 -258 -105 -26 -119 -9 -125 157 l-6 155 70 0 c51 0
80 -14 112 -54z"/>
<path d="M2779 1485 c-10 -478 -13 -445 35 -445 38 0 45 12 50 95 8 125 50
125 116 0 42 -79 60 -95 106 -95 62 0 61 5 -22 116 l-50 65 47 50 c119 127 33
269 -163 269 -115 0 -118 -1 -119 -55z m234 -85 c4 -82 -13 -100 -85 -95 -64
5 -68 9 -68 81 0 98 148 112 153 14z"/>
<path d="M3272 1315 c-42 -124 -80 -236 -86 -250 -6 -16 9 -25 42 -25 38 0 52
10 52 39 0 49 9 54 122 71 91 13 92 13 105 -48 9 -48 22 -62 59 -62 l48 0 -82
249 c-114 348 -151 352 -260 26z m156 37 c6 -27 17 -63 24 -80 10 -25 -1 -32
-50 -32 -67 0 -76 22 -42 109 24 64 52 65 68 3z"/>
<path d="M3699 1525 c-1 -8 -4 -121 -5 -250 l-4 -235 100 0 c180 0 289 107
220 213 -27 41 -30 62 -12 100 55 121 -7 187 -178 187 -66 0 -121 -7 -121 -15z
m218 -83 c52 -33 8 -102 -65 -102 -61 0 -66 5 -64 60 2 63 65 83 129 42z m26
-206 c34 -53 6 -87 -85 -104 l-73 -13 2 82 c2 83 2 83 71 72 38 -7 76 -23 85
-37z"/>
<path d="M4140 1290 l0 -250 101 0 c109 0 207 39 227 91 23 62 12 127 -28 155
-36 25 -37 31 -10 54 102 84 1 200 -174 200 l-116 0 0 -250z m230 110 c0 -43
-10 -51 -75 -56 -72 -6 -75 -4 -75 56 0 60 3 62 75 56 65 -5 75 -13 75 -56z
m-3 -149 c50 -38 35 -94 -33 -116 -82 -28 -114 -7 -114 74 0 79 71 99 147 42z"/>
<path d="M4760 1500 c0 -33 13 -40 71 -40 l72 0 -7 -210 -6 -210 50 0 50 0 -7
210 -7 210 62 0 c49 0 62 9 62 40 0 37 -13 40 -170 40 -157 0 -170 -3 -170
-40z"/>
<path d="M1310 750 c0 -99 4 -110 42 -110 124 0 183 160 74 201 -102 39 -116
28 -116 -91z m138 25 c27 -44 -25 -103 -74 -84 -34 13 -47 90 -20 116 22 22
70 6 94 -32z"/>
<path d="M1560 750 c0 -60 9 -110 20 -110 11 0 20 50 20 110 0 61 -9 110 -20
110 -11 0 -20 -49 -20 -110z"/>
<path d="M1700 820 c-64 -64 -8 -170 84 -157 62 9 78 97 17 97 -22 0 -41 -10
-41 -21 0 -12 8 -16 19 -10 10 6 24 2 31 -9 21 -34 -51 -47 -84 -15 -32 32
-19 125 15 104 10 -6 33 -3 51 7 28 16 27 20 -11 30 -28 7 -57 -2 -81 -26z"/>
<path d="M2015 847 c14 -6 19 -20 12 -32 -9 -14 -1 -17 20 -9 28 11 33 -2 33
-78 0 -55 8 -86 20 -78 11 7 20 48 20 91 0 64 6 75 33 65 22 -8 30 -4 23 16
-6 17 -42 30 -98 32 -48 2 -77 -1 -63 -7z"/>
<path d="M2266 847 c7 -6 -1 -44 -17 -82 -34 -82 -37 -125 -9 -125 11 0 18 11
15 25 -8 37 83 43 97 7 7 -18 19 -27 28 -22 26 16 -65 210 -97 210 -16 0 -24
-6 -17 -13z"/>
<path d="M2460 750 l0 -110 70 0 c77 0 96 33 25 44 -37 5 -46 20 -51 91 -9
124 -44 104 -44 -25z"/>
<path d="M2785 845 c-43 -14 -27 -78 26 -102 58 -26 47 -71 -13 -52 -21 6 -38
2 -38 -10 0 -27 119 -28 123 -1 1 11 3 31 5 45 1 14 -15 30 -36 36 -57 15 -62
55 -8 63 43 6 43 8 6 18 -22 6 -51 8 -65 3z"/>
<path d="M2992 822 c-59 -65 -37 -136 53 -168 39 -14 115 47 115 92 0 83 -115
135 -168 76z m118 -61 c0 -69 -64 -102 -101 -52 -40 53 -37 69 16 90 63 25 85
15 85 -38z"/>
<path d="M3220 750 l0 -110 70 0 c77 0 96 33 25 44 -37 5 -46 20 -51 91 -9
124 -44 104 -44 -25z"/>
<path d="M3424 765 c8 -120 121 -160 145 -51 29 134 29 146 0 146 -21 0 -29
-24 -29 -81 0 -55 -10 -84 -32 -93 -45 -17 -71 32 -58 109 8 41 4 65 -10 65
-14 0 -20 -36 -16 -95z"/>
<path d="M3632 829 c-9 -24 -2 -29 26 -20 34 11 38 2 35 -71 -2 -46 7 -87 19
-92 14 -5 19 23 14 82 -8 84 -6 88 38 79 45 -10 45 -9 7 22 -50 40 -123 40
-139 0z"/>
<path d="M3850 750 c0 -77 8 -110 26 -110 19 0 24 29 20 103 -8 141 -46 147
-46 7z"/>
<path d="M4027 839 c-97 -37 -72 -179 31 -179 32 0 68 13 81 29 59 71 -26 184
-112 150z m95 -53 c30 -30 -15 -110 -56 -102 -42 8 -75 63 -61 100 13 33 85
34 117 2z"/>
<path d="M4241 755 c-1 -64 8 -115 19 -115 11 0 20 29 21 65 l0 65 59 -65 c68
-74 79 -79 70 -30 -4 19 -8 69 -8 110 -1 41 -9 75 -19 75 -9 0 -12 -27 -7 -60
11 -77 -10 -76 -79 5 l-55 65 -1 -115z"/>
<path d="M1920 751 c0 -49 9 -94 20 -101 12 -8 20 26 20 89 0 55 -9 101 -20
101 -11 0 -20 -40 -20 -89z"/>
<path d="M4488 817 c-8 -14 8 -41 39 -66 63 -50 69 -80 13 -65 -22 6 -40 1
-40 -9 0 -11 25 -17 55 -13 74 8 84 68 16 99 -63 29 -65 51 -6 63 39 7 38 9
-9 11 -29 2 -60 -7 -68 -20z"/>
</g>
</svg>
