<?xml version="1.0" standalone="no"?>
<!DOCTYPE svg PUBLIC "-//W3C//DTD SVG 20010904//EN"
 "http://www.w3.org/TR/2001/REC-SVG-20010904/DTD/svg10.dtd">
<svg version="1.0" xmlns="http://www.w3.org/2000/svg"
 width="300.000000pt" height="300.000000pt" viewBox="0 0 300.000000 300.000000"
 preserveAspectRatio="xMidYMid meet">
<metadata>
Created by potrace 1.10, written by Peter Selinger 2001-2011
</metadata>
<g transform="translate(0.000000,300.000000) scale(0.100000,-0.100000)"
fill="#000000" stroke="none">
<path d="M1391 2729 c-79 -83 -101 -113 -92 -122 8 -8 34 12 106 83 l95 95
113 -113 114 -113 96 3 c54 2 97 0 97 -4 0 -18 -46 -28 -126 -28 l-87 0 -102
104 -102 104 -83 -83 c-59 -59 -78 -85 -69 -91 20 -12 111 -4 136 11 18 12 23
12 33 0 8 -9 30 -15 59 -15 41 0 52 -5 81 -35 l34 -35 101 0 101 0 34 35 c28
29 41 35 76 35 35 0 47 -5 73 -35 24 -28 38 -35 67 -35 36 0 37 0 19 -20 -13
-14 -31 -20 -62 -20 -38 0 -43 2 -43 23 0 30 -29 57 -61 57 -33 0 -49 -17 -49
-52 0 -27 -2 -28 -47 -28 -29 0 -53 6 -65 17 -14 12 -21 14 -30 5 -15 -15 16
-52 44 -52 10 0 18 -6 18 -13 0 -15 61 -77 76 -77 6 0 21 11 34 25 l24 25 31
-30 c27 -26 38 -30 86 -30 69 0 85 -14 59 -48 -27 -33 -25 -66 5 -96 17 -17
25 -36 25 -59 0 -24 8 -41 30 -62 26 -25 30 -36 30 -85 0 -44 4 -61 20 -75 25
-23 25 -37 0 -60 -18 -17 -20 -31 -20 -162 0 -132 1 -144 18 -141 13 3 17 14
17 51 0 47 1 49 103 150 l102 102 -100 100 -99 100 -2 101 c-1 56 2 107 5 113
19 29 26 3 26 -91 l0 -103 111 -111 110 -110 -110 -107 c-105 -101 -111 -108
-111 -147 0 -33 3 -40 20 -40 16 0 20 7 20 32 0 28 16 49 117 150 l118 118
-118 118 -117 117 0 263 0 262 -318 0 -317 0 -120 120 c-66 66 -122 120 -125
120 -3 -1 -52 -50 -109 -111z m157 -92 c23 -23 42 -46 42 -50 0 -15 -30 -6
-60 19 l-31 27 -28 -27 c-25 -24 -61 -35 -61 -19 0 8 82 92 90 93 3 0 25 -19
48 -43z m792 -199 c0 -106 -2 -119 -15 -108 -11 9 -15 35 -15 106 l0 94 -98 0
c-89 0 -122 8 -122 30 0 3 56 4 125 2 l125 -3 0 -121z m-314 37 c4 -15 1 -32
-7 -41 -19 -23 -44 5 -35 40 8 33 34 34 42 1z m244 -40 c0 -51 -10 -69 -25
-45 -3 6 -14 10 -25 10 -14 0 -19 9 -22 45 l-3 45 37 0 38 0 0 -55z m-294 -26
c3 -6 -1 -18 -10 -27 -19 -19 -49 -7 -54 22 -3 12 4 16 27 16 16 0 33 -5 37
-11z m184 -24 c0 -34 -1 -35 -37 -35 -42 1 -100 40 -89 59 4 6 34 11 67 11
l59 0 0 -35z m98 -44 c51 -37 58 -49 40 -67 -16 -16 -48 -9 -48 10 0 7 -13 25
-30 41 -54 52 -28 63 38 16z m-12 -99 c20 -17 39 -102 23 -102 -4 0 -23 18
-43 41 -29 33 -34 45 -25 60 12 23 18 23 45 1z m124 -331 c-8 -2 -20 -7 -27
-13 -16 -13 -43 28 -43 66 l0 29 43 -39 c29 -27 37 -40 27 -43z m65 -51 c17
-19 17 -21 0 -40 -24 -27 -59 -27 -52 0 3 10 -1 24 -9 31 -22 18 -17 29 14 29
16 0 37 -9 47 -20z m-91 -50 c-6 -27 -4 -30 20 -30 14 0 26 -3 26 -6 0 -8 -76
-84 -84 -84 -13 0 -5 106 10 128 21 31 35 27 28 -8z"/>
<path d="M990 2705 c0 -57 26 -93 92 -126 135 -68 209 -136 267 -247 26 -50 2
-29 -38 32 -53 83 -112 133 -217 185 -46 23 -113 59 -150 81 -36 22 -75 41
-87 43 -19 2 -22 -3 -21 -35 l1 -38 -108 0 -109 0 0 -268 0 -269 -116 -113
-116 -113 116 -116 116 -116 0 -263 0 -262 100 0 c93 0 100 1 100 20 0 18 -7
20 -80 20 l-80 0 0 115 c0 107 7 134 26 103 4 -7 7 -52 5 -100 l-2 -88 63 0
63 0 0 108 c-1 59 -4 114 -8 123 -5 10 -2 21 8 29 21 18 19 53 -6 76 -15 13
-20 28 -18 56 3 31 -3 44 -29 71 -31 32 -32 36 -32 118 0 73 -3 89 -20 104
-11 10 -20 23 -20 30 0 7 9 20 20 30 16 14 20 31 20 76 0 52 3 60 32 84 27 23
31 33 30 65 -2 30 2 42 23 58 31 25 33 67 3 99 l-22 23 22 16 c12 8 22 26 22
40 0 19 5 24 25 24 14 0 28 7 31 15 10 24 18 18 62 -45 47 -67 115 -125 180
-154 23 -10 42 -22 42 -26 0 -4 -14 -39 -32 -76 -23 -49 -33 -88 -36 -134 -3
-53 -9 -70 -30 -92 -17 -18 -25 -39 -25 -60 0 -18 -6 -42 -13 -53 -16 -23 -18
-71 -4 -80 6 -4 -1 -15 -17 -27 -56 -42 -115 -104 -132 -138 -29 -55 -45 -164
-45 -300 -1 -134 9 -182 50 -237 13 -17 24 -34 24 -37 0 -3 -29 -6 -65 -6 -36
0 -65 -4 -65 -9 0 -17 150 -21 810 -21 654 0 844 5 835 20 -3 5 -37 11 -76 15
l-71 7 24 27 c14 15 52 100 88 201 35 96 76 206 91 245 27 69 28 90 6 97 -7 2
-129 0 -272 -5 -209 -7 -263 -12 -277 -24 -9 -8 -37 -72 -63 -141 -25 -70 -50
-138 -56 -151 -15 -37 -22 -17 -9 25 11 31 10 43 -2 68 -9 17 -30 77 -48 132
-19 62 -43 115 -60 135 -21 25 -27 41 -23 61 3 15 1 41 -5 58 -8 23 -8 30 1
30 7 0 25 12 39 28 36 37 67 62 75 62 3 0 21 -11 39 -25 18 -14 36 -25 40 -25
13 0 -38 49 -58 56 -10 3 -18 12 -18 20 0 18 1 18 50 -2 23 -9 44 -14 47 -11
3 4 -7 11 -23 18 -16 6 -39 15 -52 20 -37 14 -17 27 34 21 34 -3 45 -2 40 7
-4 6 -27 11 -51 11 -40 0 -44 2 -50 29 -4 19 -1 38 9 53 8 13 19 50 25 82 13
73 8 78 -71 73 -51 -3 -58 -1 -67 20 -30 65 -118 131 -221 166 -9 2 -22 28
-29 56 -29 115 -119 207 -288 296 -43 22 -90 49 -103 58 -36 25 -60 22 -60 -8z
m133 -79 c104 -56 172 -103 207 -142 57 -66 97 -174 63 -174 -4 0 -21 28 -37
62 -29 62 -116 159 -160 179 -40 18 -140 85 -144 97 -6 18 3 15 71 -22z m-90
-148 c49 -24 42 -35 -8 -13 -66 27 -50 8 24 -29 39 -20 71 -38 71 -41 0 -2
-23 3 -51 11 -28 9 -53 13 -55 11 -3 -2 28 -19 68 -37 40 -18 68 -35 61 -37
-6 -2 -26 3 -43 12 -47 24 -46 13 0 -16 55 -33 80 -52 60 -46 -59 17 -61 15
-15 -14 28 -17 71 -50 98 -71 26 -22 47 -37 47 -33 0 17 -103 204 -131 238
-17 21 -76 67 -131 103 -55 36 -98 67 -96 69 2 3 54 -19 114 -49 135 -66 205
-127 272 -238 27 -45 55 -84 62 -86 9 -3 9 0 0 18 -17 32 -3 39 60 30 104 -14
161 -54 222 -151 10 -15 14 -29 11 -33 -15 -15 -67 -4 -95 19 -16 14 -42 26
-56 26 -52 3 -127 -3 -132 -10 -5 -7 -202 -31 -208 -26 -2 2 4 15 14 30 11 17
23 25 36 22 10 -3 18 -2 18 2 0 12 -63 67 -126 109 -34 22 -83 65 -109 94 -47
51 -107 162 -121 223 -7 30 -7 29 46 -18 30 -27 72 -58 93 -69z m-158 18 c26
-64 21 -86 -18 -86 -17 0 -19 5 -14 33 3 18 3 45 0 60 -5 26 -7 27 -80 27
l-75 0 2 -82 c3 -106 3 -105 -15 -112 -13 -5 -15 12 -15 110 l0 115 96 -3 95
-3 24 -59z m-68 -43 c-2 -32 -7 -39 -27 -41 -13 -2 -30 -11 -37 -20 -10 -14
-12 -8 -13 41 l0 57 39 0 c40 0 40 0 38 -37z m-4 -90 c-4 -10 -20 -35 -37 -55
-30 -39 -62 -49 -72 -24 -5 14 28 56 44 56 5 0 17 9 27 20 23 25 47 27 38 3z
m-3 -113 c12 -22 -5 -55 -49 -94 l-21 -19 0 47 c0 37 5 52 23 67 28 24 34 23
47 -1z m-113 -2 c5 -7 10 -56 11 -108 l3 -95 -103 -103 -103 -102 103 -107
103 -107 -3 -88 c-3 -66 -8 -93 -21 -105 -16 -16 -17 -11 -17 87 l0 104 -109
107 -109 107 109 108 109 109 0 102 c0 98 6 119 27 91z m83 -136 c0 -5 -9 -17
-20 -27 -16 -14 -20 -15 -20 -4 0 16 19 39 32 39 4 0 8 -4 8 -8z m780 -37 c25
-13 30 -22 30 -54 0 -73 -77 -116 -130 -73 -27 21 -46 108 -29 129 15 18 93
17 129 -2z m248 -11 c2 -12 -4 -39 -13 -60 l-17 -39 -23 45 c-36 67 -33 82 13
78 29 -2 38 -8 40 -24z m-418 -35 c0 -67 53 -129 110 -129 60 0 120 54 120
110 0 22 39 43 63 34 19 -7 87 -113 87 -136 0 -25 -23 -32 -60 -20 -35 13 -38
4 -14 -38 20 -34 13 -57 -21 -70 -42 -16 -77 -12 -102 12 -32 30 -39 17 -8
-14 32 -32 70 -40 117 -23 47 16 50 0 4 -22 -32 -15 -39 -15 -120 6 -47 11
-93 21 -103 21 -15 0 -15 -2 3 -15 19 -14 19 -14 -2 -15 -34 0 -122 29 -171
58 -65 38 -85 69 -92 144 -6 60 -7 61 -15 28 -12 -47 -20 -13 -11 46 l6 43 52
4 c29 2 76 4 105 5 52 2 52 2 52 -29z m-680 -68 c0 -16 -8 -39 -19 -52 -18
-22 -19 -22 -36 -5 -17 16 -16 19 16 52 18 19 34 34 36 34 2 0 3 -13 3 -29z
m-67 -87 c3 -3 2 -14 -3 -23 -5 -9 -11 -24 -14 -33 -7 -23 -18 -23 -47 1 -23
19 -24 19 -5 40 18 20 56 28 69 15z m1142 -31 c-7 -30 -32 -63 -47 -63 -14 0
2 42 25 68 27 29 31 28 22 -5z m-1093 -25 c11 -21 23 -128 14 -128 -5 0 -86
81 -86 86 0 2 9 4 20 4 20 0 24 9 21 43 -3 24 16 21 31 -5z m451 2 c8 -32 95
-79 227 -121 131 -42 208 -51 235 -29 25 20 31 2 7 -22 -23 -23 -94 -30 -162
-16 l-35 8 30 -15 c37 -17 146 -20 163 -3 6 6 15 9 19 5 12 -13 -14 -29 -61
-38 -52 -10 -168 8 -275 41 -36 10 -67 18 -69 16 -7 -8 124 -64 177 -76 32 -8
88 -11 140 -8 81 5 84 5 52 -9 -126 -53 -295 -34 -423 48 -61 39 -78 64 -78
109 l1 35 19 -37 c19 -36 50 -63 100 -88 14 -6 1 9 -27 35 -29 25 -53 50 -53
55 0 5 25 -4 55 -20 55 -29 127 -46 161 -38 12 3 -1 11 -36 22 -125 38 -213
106 -196 151 8 21 23 19 29 -5z m-53 -205 c7 -9 11 -18 8 -20 -9 -10 -38 7
-38 21 0 18 14 18 30 -1z m-326 -41 c3 -9 6 -23 6 -31 0 -13 -3 -13 -15 -3
-16 13 -21 50 -6 50 5 0 12 -7 15 -16z m331 -23 c72 -49 111 -153 99 -263 -4
-32 -10 -58 -14 -58 -4 0 -10 38 -13 84 -8 112 -35 174 -100 231 -54 47 -37
51 28 6z m-75 11 c0 -4 19 -32 41 -62 52 -69 60 -90 66 -168 l5 -63 -38 7 -39
6 55 -52 c30 -29 67 -57 83 -62 15 -5 27 -14 27 -19 0 -13 -6 -12 -87 12 -68
20 -75 21 -120 6 -26 -9 -49 -14 -51 -12 -9 8 63 44 101 50 l39 7 -26 27 c-24
22 -29 24 -39 11 -7 -8 -25 -22 -41 -30 -38 -19 -54 -54 -35 -76 10 -12 23
-15 57 -10 26 3 68 0 105 -10 l62 -15 -3 -60 c-3 -43 1 -67 13 -85 l16 -25
-121 2 -121 1 -25 40 c-14 21 -30 51 -35 66 -27 70 -17 339 17 419 18 45 63
103 80 103 8 0 14 -3 14 -8z m628 -14 c-11 -36 -185 -85 -211 -59 -8 8 0 11
29 11 51 0 138 25 154 45 15 18 33 20 28 3z m-417 -22 c30 -14 83 -30 118 -35
36 -6 70 -16 76 -23 9 -9 10 -37 5 -93 -4 -44 -7 -108 -6 -142 l2 -61 -34 14
c-41 17 -115 18 -144 3 -16 -9 -24 -8 -36 4 -13 14 -13 19 3 53 13 29 16 54
13 113 -5 69 -30 150 -50 159 -8 4 -11 32 -4 32 2 0 28 -11 57 -24z m488 -50
c5 -17 12 -39 16 -48 5 -13 2 -15 -15 -11 -12 3 -26 17 -31 32 -5 14 -13 34
-19 43 -5 10 -7 24 -4 33 6 14 8 14 25 -1 10 -9 23 -31 28 -48z m-909 -43 c0
-22 -19 -24 -45 -6 -19 14 -24 27 -25 58 l0 40 35 -40 c19 -22 34 -45 35 -52z
m845 25 c9 -51 1 -271 -10 -275 -6 -2 -10 53 -10 152 0 148 7 193 20 123z
m830 22 c4 -6 -21 -10 -67 -11 -40 0 -151 -6 -246 -13 -130 -9 -175 -15 -182
-26 -5 -8 -37 -91 -71 -185 -33 -93 -75 -203 -91 -243 l-31 -74 -76 6 c-42 3
-125 8 -186 12 -169 11 -86 27 100 19 l150 -5 95 251 c52 138 97 252 101 254
3 3 102 7 220 11 118 4 216 8 218 10 9 8 60 3 66 -6z m-868 -147 c3 -75 1
-113 -5 -105 -7 11 -10 11 -15 -2 -4 -9 -3 -24 0 -33 6 -15 4 -16 -9 -5 -13
10 -17 10 -22 -4 -4 -9 -9 -14 -12 -11 -3 3 -1 14 4 24 7 12 7 25 2 33 -8 13
-12 12 -24 -5 -11 -15 -12 -23 -3 -34 10 -12 9 -14 -5 -9 -9 4 -23 -1 -34 -13
-9 -10 -19 -17 -22 -14 -3 3 3 14 13 25 9 10 15 26 12 35 -9 23 -27 18 -27 -7
0 -13 -5 -30 -11 -38 -8 -11 -9 -2 -5 34 4 28 9 94 13 148 7 112 26 130 31 30
2 -34 8 -62 13 -62 6 0 9 25 8 62 -2 37 2 63 8 65 15 5 24 -23 30 -101 5 -52
8 -64 16 -51 5 10 7 49 4 91 -5 53 -3 74 6 77 24 9 30 -13 34 -130z m843 95
c0 -11 -86 -251 -99 -276 -5 -9 -19 -46 -31 -82 -12 -36 -33 -79 -46 -97 l-24
-31 -186 -2 c-103 0 -190 -3 -194 -5 -3 -2 -12 0 -19 4 -13 8 -15 1 87 286 56
154 58 159 74 172 15 13 56 18 263 33 76 6 141 13 143 15 7 6 32 -7 32 -17z
m-1702 -44 c2 -12 12 -24 23 -27 13 -3 19 -14 19 -31 0 -14 -1 -26 -3 -26 -2
0 -25 19 -50 43 -54 49 -60 70 -19 65 19 -2 28 -9 30 -24z m974 -35 c4 -30 3
-78 -1 -106 -6 -43 -5 -51 5 -42 7 6 18 26 25 46 16 50 35 26 43 -57 8 -94 -3
-104 -57 -51 l-44 43 10 55 c6 35 6 77 0 114 -7 42 -6 59 1 56 6 -2 14 -28 18
-58z m-957 -74 c17 -18 25 -37 25 -60 0 -32 -2 -35 -30 -35 -30 0 -30 0 -30
60 0 33 2 60 5 60 2 0 16 -11 30 -25z m568 -111 l47 -7 -30 -33 c-31 -36 -45
-85 -38 -134 6 -43 -15 -32 -26 13 -8 30 -5 44 17 87 l26 50 -28 0 c-50 0 -91
-95 -72 -166 l10 -39 -20 25 c-29 35 -22 114 14 169 29 44 30 44 100 35z m361
-35 c19 -13 40 -34 45 -47 14 -29 14 -62 1 -62 -5 0 -10 5 -10 12 0 24 -51 77
-86 88 -40 14 -60 6 -22 -9 29 -11 91 -78 85 -94 -7 -22 -23 -16 -41 14 -17
28 -67 59 -97 59 -7 0 5 -15 26 -33 28 -24 37 -38 32 -51 -7 -17 -9 -17 -43 3
l-36 21 -57 -20 c-35 -13 -74 -20 -102 -18 -43 3 -44 4 -42 37 2 59 30 83 124
108 105 28 175 25 223 -8z"/>
<path d="M1459 2048 c-8 -7 -12 -12 -10 -10 3 1 11 -12 18 -29 10 -25 18 -30
39 -27 39 4 53 32 30 57 -21 24 -55 27 -77 9z"/>
<path d="M1215 1900 c5 -32 53 -96 63 -85 3 3 -4 15 -16 28 -11 12 -28 38 -37
57 l-16 35 6 -35z"/>
<path d="M1518 1257 c-29 -9 -36 -15 -28 -27 7 -12 12 -12 29 4 17 15 23 16
36 6 12 -10 18 -10 30 0 8 7 12 16 9 21 -7 12 -30 10 -76 -4z"/>
<path d="M508 741 c-32 -28 -33 -32 -33 -105 0 -69 2 -78 28 -103 22 -22 37
-28 71 -28 69 0 112 50 65 76 -17 9 -23 7 -36 -10 -36 -52 -89 -2 -81 74 3 25
11 52 18 60 17 21 46 19 63 -5 9 -13 20 -17 35 -13 54 14 -6 83 -72 83 -14 0
-40 -13 -58 -29z"/>
<path d="M749 755 c-55 -30 -75 -127 -41 -195 36 -72 124 -78 170 -10 20 30
23 44 20 99 -4 57 -8 67 -36 92 -36 32 -72 36 -113 14z m89 -65 c15 -29 10
-103 -8 -125 -16 -19 -54 -19 -69 -1 -16 19 -16 108 -1 135 16 30 60 25 78 -9z"/>
<path d="M940 640 l0 -130 65 0 c57 0 69 3 96 28 40 36 51 109 25 164 -21 44
-44 56 -123 63 l-63 5 0 -130z m127 54 c21 -22 25 -32 20 -66 -6 -48 -21 -65
-60 -70 l-28 -3 -2 83 c-2 79 -1 82 21 82 13 0 35 -12 49 -26z"/>
<path d="M1180 638 l0 -128 80 0 c79 0 80 0 80 26 0 24 -2 25 -52 23 -53 -3
-53 -3 -53 26 0 29 1 30 43 27 39 -3 42 -2 42 22 0 24 -3 26 -46 26 -44 0 -45
1 -42 28 3 26 5 27 56 24 52 -3 52 -3 52 27 l0 30 -80 -1 -80 -1 0 -129z"/>
<path d="M1388 641 l-3 -131 28 0 c25 0 27 3 27 45 0 38 3 45 20 45 14 0 26
-14 41 -50 21 -49 31 -56 63 -44 13 5 11 12 -9 45 -30 47 -30 45 -5 76 27 34
25 76 -4 109 -20 24 -32 28 -89 32 l-66 4 -3 -131z m126 57 c16 -26 -4 -52
-43 -56 -30 -3 -31 -2 -31 38 0 40 1 41 31 38 18 -2 37 -11 43 -20z"/>
<path d="M1648 647 c-21 -68 -38 -126 -38 -130 0 -4 11 -7 25 -7 18 0 26 7 31
25 5 22 12 25 49 25 37 0 44 -3 49 -24 4 -17 14 -25 36 -28 16 -3 30 -4 30 -3
0 1 -7 21 -14 46 -8 24 -27 83 -41 132 -26 86 -27 87 -58 87 l-32 0 -37 -123z
m86 4 l13 -51 -30 0 c-27 0 -29 2 -23 26 4 15 10 39 13 56 7 36 10 33 27 -31z"/>
<path d="M1870 640 l0 -130 68 0 c84 0 112 16 112 65 0 22 -8 41 -22 54 -19
18 -19 21 -5 27 24 9 22 66 -2 88 -13 12 -42 20 -85 22 l-66 5 0 -131z m115
50 c0 -21 -5 -26 -32 -28 -31 -3 -33 -1 -33 28 0 29 2 31 33 28 27 -2 32 -7
32 -28z m6 -86 c19 -23 -1 -48 -40 -52 -30 -3 -31 -2 -31 32 0 33 2 36 29 36
16 0 34 -7 42 -16z"/>
<path d="M2100 767 c-1 -1 -2 -59 -3 -130 l-2 -127 72 0 c65 0 73 2 92 26 26
33 26 54 1 87 -17 22 -18 26 -5 37 35 29 10 85 -43 99 -33 8 -111 14 -112 8z
m115 -67 c9 -28 -2 -40 -36 -40 -26 0 -29 3 -29 30 0 27 3 30 29 30 21 0 32
-6 36 -20z m-1 -96 c9 -8 16 -17 16 -19 0 -13 -35 -35 -56 -35 -21 0 -24 5
-24 35 0 30 3 35 24 35 14 0 32 -7 40 -16z"/>
<path d="M2320 640 l0 -130 30 0 30 0 0 130 0 130 -30 0 -30 0 0 -130z"/>
<path d="M2420 745 c0 -21 5 -25 30 -25 l30 0 0 -105 0 -105 31 0 31 0 -4 105
-4 105 33 0 c29 0 33 3 33 25 0 25 -1 25 -90 25 -89 0 -90 0 -90 -25z"/>
<path d="M650 355 c0 -54 0 -55 30 -55 31 0 70 30 70 53 0 30 -31 57 -66 57
l-34 0 0 -55z m54 29 c24 -9 21 -54 -4 -54 -16 0 -20 7 -20 30 0 32 1 33 24
24z"/>
<path d="M774 355 c0 -38 4 -55 13 -55 9 0 13 17 13 55 0 38 -4 55 -13 55 -9
0 -13 -17 -13 -55z"/>
<path d="M846 395 c-34 -34 -10 -95 38 -95 27 0 46 18 46 42 0 13 -8 18 -25
18 -14 0 -25 -4 -25 -10 0 -5 5 -10 10 -10 6 0 10 -4 10 -10 0 -16 -26 -12
-41 6 -19 23 1 50 36 46 19 -2 26 1 23 10 -7 20 -53 21 -72 3z"/>
<path d="M960 355 c0 -30 5 -55 10 -55 6 0 10 25 10 55 0 30 -4 55 -10 55 -5
0 -10 -25 -10 -55z"/>
<path d="M1010 401 c0 -5 7 -12 16 -15 13 -5 15 -15 11 -46 -4 -30 -2 -40 9
-40 10 0 14 13 14 45 0 33 4 45 15 45 8 0 15 5 15 10 0 6 -18 10 -40 10 -22 0
-40 -4 -40 -9z"/>
<path d="M1116 358 c-15 -34 -20 -54 -13 -57 6 -2 13 1 15 8 5 15 45 14 60 -1
6 -6 15 -9 18 -5 9 8 -31 100 -45 105 -6 2 -22 -20 -35 -50z"/>
<path d="M1230 355 l0 -55 35 0 c24 0 35 5 35 15 0 9 -9 15 -25 15 -24 0 -25
2 -19 40 5 33 4 40 -10 40 -13 0 -16 -11 -16 -55z"/>
<path d="M1381 396 c-15 -18 -7 -34 25 -46 35 -14 31 -33 -6 -25 -19 4 -30 3
-30 -4 0 -13 45 -25 65 -17 24 9 18 45 -10 58 -33 15 -32 32 1 24 19 -5 25 -3
22 6 -6 19 -53 22 -67 4z"/>
<path d="M1497 392 c-22 -24 -21 -55 1 -75 36 -33 92 -8 92 41 0 47 -61 69
-93 34z m63 -17 c15 -18 7 -43 -16 -52 -24 -9 -46 24 -33 48 12 23 32 24 49 4z"/>
<path d="M1620 355 l0 -55 35 0 c24 0 35 5 35 15 0 8 -9 15 -20 15 -17 0 -20
7 -20 40 0 29 -4 40 -15 40 -12 0 -15 -13 -15 -55z"/>
<path d="M1710 377 c0 -42 25 -77 55 -77 29 0 45 26 45 74 0 54 -28 48 -32 -6
-2 -30 -8 -43 -18 -43 -10 0 -16 13 -18 43 -4 52 -32 61 -32 9z"/>
<path d="M1836 401 c-3 -5 3 -11 13 -14 16 -4 19 -11 14 -46 -5 -33 -3 -41 11
-41 12 0 16 10 16 45 0 33 4 45 15 45 8 0 15 5 15 10 0 12 -77 13 -84 1z"/>
<path d="M1950 355 c0 -30 5 -55 10 -55 6 0 10 25 10 55 0 30 -4 55 -10 55 -5
0 -10 -25 -10 -55z"/>
<path d="M2013 384 c-15 -24 -15 -29 -2 -53 29 -52 99 -32 99 29 0 52 -67 69
-97 24z m71 -17 c8 -12 7 -21 -5 -32 -21 -21 -49 -9 -49 20 0 36 34 44 54 12z"/>
<path d="M2144 355 c-1 -40 2 -55 12 -55 9 0 14 12 14 33 l0 32 26 -32 c14
-18 30 -33 35 -33 5 0 9 25 9 55 0 43 -3 55 -16 55 -12 0 -14 -7 -9 -30 4 -16
3 -30 -2 -30 -5 0 -17 14 -26 30 -28 47 -43 38 -43 -25z"/>
<path d="M2281 396 c-16 -19 -7 -34 26 -47 31 -11 20 -31 -13 -23 -14 4 -24 2
-24 -5 0 -13 44 -25 65 -17 24 9 18 45 -10 58 -33 15 -32 32 1 24 19 -5 25 -3
22 6 -6 19 -53 22 -67 4z"/>
</g>
</svg>
